<svg id="Calque_1" data-name="Calque 1" xmlns="http://www.w3.org/2000/svg" viewBox="0 0 733.78 206.81"><defs><style>.cls-1{font-size:120px;font-family:BebasKai, Bebas Kai;}.cls-1,.cls-2{fill:#212121;}.cls-3{fill:none;stroke:#ff793f;stroke-miterlimit:10;stroke-width:3px;}</style></defs><title>logoTClair</title><text class="cls-1" transform="translate(0 119.19)">FREE</text><path class="cls-2" d="M1039.33,419H895s-11,.67-11,19.67v106c0,15.63-.27,31.26,0,46.9,5.54-7,10.25-14.49,15.48-21.68q14-20.14,27.79-40.38a3,3,0,0,1,3.18-1.69c17.18.15,34.35.17,51.53.17h76s12-2.67,12-19,1-78.33,1-78.33.33-11.67-12.33-11.67Z" transform="translate(-684.65 -419)"/><line class="cls-3" x1="249.02" y1="35.19" x2="345.35" y2="35.19"/><line class="cls-3" x1="249.02" y1="55.52" x2="329.02" y2="55.52"/><line class="cls-3" x1="249.02" y1="77.86" x2="343.02" y2="77.86"/></svg>