<svg xmlns="http://www.w3.org/2000/svg" viewBox="0 0 593.38 535.9"><defs><style>.cls-1{fill:none;stroke:red;stroke-miterlimit:10;}.cls-2{fill:#F4F4F4;}</style></defs><title>shape2</title><g id="Calque_1" data-name="Calque 1"><path class="cls-1" d="M635.49,550.39" transform="translate(-665.8 -296.9)"/></g><g id="Calque_3" data-name="Calque 3"><circle class="cls-2" cx="110.24" cy="86.24" r="86.24"/><path class="cls-2" d="M695.49,542.57c-15.68,7.7-25.67,21.48-28.51,42-5.63,40.72,9.79,89.5,28.52,125.24,20.34,38.81,50.8,72.47,88.19,95.48,16.86,10.38,35.1,15.55,54.2,20.48,16.84,4.34,34.14,7.51,51.52,7,44.88-1.4,78.26-32,103.35-66.22,16-21.91,32.88-47.43,58.27-59.36,14.29-6.72,27.65-4.59,42.85-4.47,21.21.17,42.5,1,63.62-1.51,19.13-2.31,38-7,54-18.21,15.75-11.06,24.5-31.19,31.6-48.66,19.17-47.18,22.19-102.57,3.75-150.45-34.6-89.8-117.61-164.11-215.41-175.07-27.23-3.05-58.55-2.62-81.15,15.08a64.75,64.75,0,0,0-16,18c-4.35,7.43-5.29,14.93-6.65,23.23q-4.85,29.69-12.47,58.84c-4.07,15.5-8.37,33-16.28,47.07-10.72,19.05-36,28.93-55.92,34.67-43.36,12.47-87.43,22.11-131.56,31.52A68.33,68.33,0,0,0,695.49,542.57Z" transform="translate(-665.8 -296.9)"/></g></svg>